<svg xmlns="http://www.w3.org/2000/svg" viewBox="0 0 1000 666" width="1000" height="666">
  <!-- Fondo del piso -->
  <rect width="1000" height="666" fill="#e8eaed" rx="8"/>

  <!-- Contorno del edificio -->
  <rect x="40" y="40" width="920" height="586" fill="#f0f2f5" stroke="#bfc5d1" stroke-width="3" rx="4"/>

  <!-- Grilla en % -->
  <g stroke="#cdd1da" stroke-width="1" stroke-dasharray="4 4">
    <line x1="100" y1="0" x2="100" y2="666"/>
    <line x1="200" y1="0" x2="200" y2="666"/>
    <line x1="300" y1="0" x2="300" y2="666"/>
    <line x1="400" y1="0" x2="400" y2="666"/>
    <line x1="500" y1="0" x2="500" y2="666"/>
    <line x1="600" y1="0" x2="600" y2="666"/>
    <line x1="700" y1="0" x2="700" y2="666"/>
    <line x1="800" y1="0" x2="800" y2="666"/>
    <line x1="900" y1="0" x2="900" y2="666"/>
    <line x1="0" y1="66.6" x2="1000" y2="66.6"/>
    <line x1="0" y1="133.2" x2="1000" y2="133.2"/>
    <line x1="0" y1="199.8" x2="1000" y2="199.8"/>
    <line x1="0" y1="266.4" x2="1000" y2="266.4"/>
    <line x1="0" y1="333" x2="1000" y2="333"/>
    <line x1="0" y1="399.6" x2="1000" y2="399.6"/>
    <line x1="0" y1="466.2" x2="1000" y2="466.2"/>
    <line x1="0" y1="532.8" x2="1000" y2="532.8"/>
    <line x1="0" y1="599.4" x2="1000" y2="599.4"/>
  </g>

  <!-- Etiquetas de % en eje X (arriba) -->
  <g fill="#9aa3b2" font-family="system-ui, sans-serif" font-size="11" text-anchor="middle">
    <text x="100" y="14">10%</text>
    <text x="200" y="14">20%</text>
    <text x="300" y="14">30%</text>
    <text x="400" y="14">40%</text>
    <text x="500" y="14">50%</text>
    <text x="600" y="14">60%</text>
    <text x="700" y="14">70%</text>
    <text x="800" y="14">80%</text>
    <text x="900" y="14">90%</text>
  </g>

  <!-- Etiquetas de % en eje Y (izquierda) -->
  <g fill="#9aa3b2" font-family="system-ui, sans-serif" font-size="11" text-anchor="end">
    <text x="95" y="70.6">10%</text>
    <text x="95" y="137.2">20%</text>
    <text x="95" y="203.8">30%</text>
    <text x="95" y="270.4">40%</text>
    <text x="95" y="337">50%</text>
    <text x="95" y="403.6">60%</text>
    <text x="95" y="470.2">70%</text>
    <text x="95" y="536.8">80%</text>
    <text x="95" y="603.4">90%</text>
  </g>

  <!-- Pasillo central -->
  <rect x="60" y="280" width="880" height="80" fill="#e0e4eb" stroke="#bfc5d1" stroke-width="1"/>
  <text x="500" y="326" text-anchor="middle" font-family="system-ui,sans-serif" font-size="12" fill="#9aa3b2">— PASILLO —</text>

  <!-- Aula 201 (70%, 25%) — marcador de referencia visual -->
  <!-- 70% de 1000 = 700px, 25% de 666 = 166.5px -->
  <rect x="560" y="60" width="380" height="200" fill="#fff8e8" stroke="#f0c060" stroke-width="2"/>
  <text x="750" y="155" text-anchor="middle" font-family="system-ui,sans-serif" font-size="18" fill="#b07b10" font-weight="700">Aula 201</text>
  <text x="750" y="175" text-anchor="middle" font-family="system-ui,sans-serif" font-size="11" fill="#9aa3b2">(70%, 25%)</text>

  <!-- Aula 202 -->
  <rect x="270" y="60" width="270" height="200" fill="#dce0e8" stroke="#bfc5d1" stroke-width="1.5"/>
  <text x="405" y="165" text-anchor="middle" font-family="system-ui,sans-serif" font-size="14" fill="#6b7585">Aula 202</text>

  <!-- Aula 203 -->
  <rect x="60" y="60" width="190" height="200" fill="#dce0e8" stroke="#bfc5d1" stroke-width="1.5"/>
  <text x="155" y="165" text-anchor="middle" font-family="system-ui,sans-serif" font-size="13" fill="#6b7585">Aula 203</text>

  <!-- Aula 204 -->
  <rect x="270" y="380" width="450" height="220" fill="#dce0e8" stroke="#bfc5d1" stroke-width="1.5"/>
  <text x="495" y="495" text-anchor="middle" font-family="system-ui,sans-serif" font-size="14" fill="#6b7585">Aula 204</text>

  <!-- Baño (12%, 80%) — marcador referencia -->
  <!-- 12% de 1000 = 120px, 80% de 666 = 532.8px -->
  <rect x="60" y="380" width="190" height="220" fill="#e4f5e4" stroke="#8cc88c" stroke-width="2"/>
  <text x="155" y="488" text-anchor="middle" font-family="system-ui,sans-serif" font-size="13" fill="#3a8a3a">🚻 Baño</text>
  <text x="155" y="505" text-anchor="middle" font-family="system-ui,sans-serif" font-size="11" fill="#9aa3b2">(12%, 80%)</text>

  <!-- Depósito -->
  <rect x="740" y="380" width="200" height="220" fill="#dce0e8" stroke="#bfc5d1" stroke-width="1.5"/>
  <text x="840" y="495" text-anchor="middle" font-family="system-ui,sans-serif" font-size="12" fill="#9aa3b2">Depósito</text>

  <!-- Label del plano -->
  <text x="500" y="656" text-anchor="middle" font-family="system-ui,sans-serif" font-size="12" fill="#9aa3b2">
    PLACEHOLDER — Edificio B · Piso 2 · reemplazar con plano real
  </text>
</svg>
